<?xml version="1.0" standalone="no"?>
<!DOCTYPE svg PUBLIC "-//W3C//DTD SVG 20010904//EN"
 "http://www.w3.org/TR/2001/REC-SVG-20010904/DTD/svg10.dtd">
<svg version="1.0" xmlns="http://www.w3.org/2000/svg"
 width="128.000000pt" height="128.000000pt" viewBox="0 0 128.000000 128.000000"
 preserveAspectRatio="xMidYMid meet">
<metadata>
Created by potrace 1.14, written by Peter Selinger 2001-2017
</metadata>
<g transform="translate(0.000000,128.000000) scale(0.100000,-0.100000)"
fill="#000000" stroke="none">
<path d="M210 1188 c-89 -45 -115 -136 -66 -228 43 -83 43 -86 -12 -144 -88
-93 -105 -189 -90 -503 4 -67 11 -130 17 -140 5 -11 29 -37 52 -58 l42 -37
102 4 c158 7 188 28 340 233 16 21 37 47 46 56 16 16 17 15 28 -7 5 -13 44
-49 86 -79 76 -56 76 -57 73 -98 -3 -40 -1 -43 30 -52 24 -7 32 -15 32 -32 0
-35 38 -44 153 -38 128 6 190 32 195 82 4 37 -24 59 -63 49 -14 -4 -27 0 -35
9 -7 8 -22 15 -34 15 -87 1 -223 113 -374 308 l-33 42 119 0 119 0 12 83 c7
45 24 140 37 210 14 71 23 136 21 145 -8 38 -39 -60 -70 -223 l-32 -170 -75
-3 c-60 -2 -82 1 -110 17 -21 11 -66 22 -112 26 -82 8 -115 -1 -180 -46 -14
-11 -28 -19 -31 -19 -2 0 -7 19 -11 42 -4 23 -17 62 -30 87 -34 64 -37 80 -26
102 8 14 21 19 54 19 l44 0 20 58 c13 38 16 64 11 75 -5 8 -9 30 -8 49 1 34
-19 112 -35 137 -13 21 -87 51 -126 51 -20 0 -56 -10 -80 -22z m360 -621 c0
-2 -35 -34 -77 -72 l-78 -68 70 71 c60 62 85 82 85 69z"/>
</g>
</svg>
